<svg width="24" height="16" viewBox="0 0 24 16" fill="none" xmlns="http://www.w3.org/2000/svg">
<path d="M6.93825 0.173828C7.64175 0.173828 8.27775 0.232328 8.8605 0.361328C9.435 0.490328 9.93075 0.689828 10.3448 0.971078C10.755 1.25233 11.0753 1.61983 11.3055 2.09233C11.5283 2.56108 11.6453 3.14308 11.6453 3.82258C11.6453 4.56058 11.4735 5.18233 11.1375 5.68183C10.7978 6.18208 10.3013 6.58033 9.63375 6.90058C10.5398 7.16233 11.2118 7.61908 11.6573 8.27158C12.1065 8.93158 12.321 9.72058 12.321 10.6311C12.321 11.3811 12.192 12.0216 11.9108 12.5608C11.6407 13.0997 11.2422 13.5638 10.7505 13.9123C10.2698 14.2603 9.69975 14.5101 9.0825 14.6781C8.45965 14.8462 7.81739 14.9317 7.17225 14.9323H0V0.182078H6.9375L6.93825 0.173828ZM16.9425 12.3343C17.3797 12.7641 18.0127 12.9786 18.837 12.9786C19.4265 12.9786 19.935 12.8301 20.364 12.5293C20.79 12.2406 21.0435 11.9196 21.1455 11.5918H23.7315C23.3295 12.8691 22.6845 13.7908 21.8333 14.3421C20.982 14.9008 19.9508 15.1701 18.7552 15.1701C17.9153 15.1701 17.169 15.0411 16.482 14.7718C15.8351 14.5168 15.2493 14.1281 14.763 13.6311C14.298 13.1428 13.9388 12.5526 13.6845 11.8618C13.4303 11.1711 13.3095 10.4128 13.3095 9.59233C13.3095 8.78758 13.446 8.05333 13.716 7.36183C13.9671 6.69784 14.3469 6.08997 14.8335 5.57308C15.3293 5.06158 15.8962 4.67833 16.572 4.37758C17.244 4.07683 17.9707 3.94408 18.7905 3.94408C19.701 3.94408 20.4818 4.10833 21.1695 4.46758C21.823 4.80024 22.3912 5.27884 22.83 5.86633C23.2717 6.45208 23.58 7.12783 23.7712 7.88983C23.9625 8.63983 24.021 9.42883 23.982 10.2688H16.2907C16.2907 11.1088 16.572 11.9016 17.0017 12.3313L16.92 12.3628L16.9425 12.3343ZM6.69975 12.3846C7.01625 12.3846 7.32075 12.3531 7.60575 12.2908C7.87593 12.2378 8.13416 12.1359 8.36775 11.9901C8.5785 11.8573 8.7585 11.6616 8.89125 11.4081C9.02025 11.1696 9.07875 10.8381 9.07875 10.4473C9.07875 9.69733 8.85975 9.15808 8.43825 8.83033C8.0085 8.51008 7.44975 8.34958 6.75075 8.34958H3.23925V12.4003H6.7005V12.3688L6.69975 12.3846ZM20.3092 6.73633C19.9537 6.34933 19.368 6.14233 18.6488 6.14233C18.1838 6.14233 17.7975 6.21658 17.4847 6.38083C17.1974 6.52113 16.944 6.72228 16.7423 6.97033C16.5625 7.19124 16.4295 7.44642 16.3515 7.72033C16.2818 7.95186 16.2373 8.19024 16.2188 8.43133H20.9805C20.91 7.68133 20.6482 7.13083 20.301 6.74008V6.75208L20.3092 6.73633ZM6.5205 6.11908C7.095 6.11908 7.57125 5.98633 7.94625 5.70883C8.32125 5.43958 8.50125 4.98583 8.50125 4.36933C8.50125 4.02583 8.43075 3.74458 8.32125 3.52558C8.19967 3.3161 8.02772 3.14028 7.821 3.01408C7.59771 2.88479 7.3527 2.79735 7.098 2.75608C6.82113 2.7037 6.53976 2.67883 6.258 2.68183H3.231V6.11908H6.5205ZM15.618 1.16233H21.5865V2.61508H15.618V1.15033V1.16233Z" fill="#E5E2F6"/>
</svg>
