<svg width="20" height="20" viewBox="0 0 20 20" fill="none" xmlns="http://www.w3.org/2000/svg">
<path d="M9.99913 6.54572C8.27882 6.54572 6.87492 7.94962 6.87492 9.66994C6.87492 11.3902 8.27882 12.7942 9.99913 12.7942C11.7194 12.7942 13.1234 11.3902 13.1234 9.66994C13.1234 7.94962 11.7194 6.54572 9.99913 6.54572ZM19.3694 9.66994C19.3694 8.37619 19.3812 7.09415 19.3085 5.80275C19.2359 4.30275 18.8937 2.9715 17.7968 1.87462C16.6976 0.775404 15.3687 0.43556 13.8687 0.362904C12.5749 0.290248 11.2929 0.301967 10.0015 0.301967C8.70773 0.301967 7.4257 0.290248 6.13429 0.362904C4.63429 0.43556 3.30304 0.777748 2.20617 1.87462C1.10695 2.97384 0.767103 4.30275 0.694447 5.80275C0.621791 7.0965 0.63351 8.37853 0.63351 9.66994C0.63351 10.9613 0.621791 12.2457 0.694447 13.5371C0.767103 15.0371 1.10929 16.3684 2.20617 17.4652C3.30538 18.5645 4.63429 18.9043 6.13429 18.977C7.42804 19.0496 8.71007 19.0379 10.0015 19.0379C11.2952 19.0379 12.5773 19.0496 13.8687 18.977C15.3687 18.9043 16.6999 18.5621 17.7968 17.4652C18.896 16.366 19.2359 15.0371 19.3085 13.5371C19.3835 12.2457 19.3694 10.9637 19.3694 9.66994ZM9.99913 14.477C7.33898 14.477 5.1921 12.3301 5.1921 9.66994C5.1921 7.00978 7.33898 4.8629 9.99913 4.8629C12.6593 4.8629 14.8062 7.00978 14.8062 9.66994C14.8062 12.3301 12.6593 14.477 9.99913 14.477ZM15.003 5.78868C14.3819 5.78868 13.8804 5.28712 13.8804 4.66603C13.8804 4.04494 14.3819 3.54337 15.003 3.54337C15.6241 3.54337 16.1257 4.04494 16.1257 4.66603C16.1259 4.81351 16.097 4.95958 16.0406 5.09587C15.9843 5.23216 15.9016 5.35599 15.7973 5.46028C15.693 5.56456 15.5692 5.64725 15.4329 5.70361C15.2966 5.75996 15.1505 5.78887 15.003 5.78868Z" fill="#E5E2F6"/>
</svg>
