<svg width="20" height="21" viewBox="0 0 20 21" fill="none" xmlns="http://www.w3.org/2000/svg">
<path fill-rule="evenodd" clip-rule="evenodd" d="M7.429 7.63892H11.143V9.48892C11.678 8.42492 13.05 7.46892 15.111 7.46892C19.062 7.46892 20 9.58692 20 13.4729V20.6699H16V14.3579C16 12.1449 15.465 10.8969 14.103 10.8969C12.214 10.8969 11.429 12.2419 11.429 14.3569V20.6699H7.429V7.63892ZM0.57 20.4999H4.57V7.46892H0.57V20.4999ZM5.143 3.21992C5.14315 3.5552 5.07666 3.88716 4.94739 4.19651C4.81812 4.50586 4.62865 4.78644 4.39 5.02192C3.9064 5.50255 3.25181 5.77158 2.57 5.76992C1.88939 5.76946 1.23631 5.50112 0.752 5.02292C0.514211 4.78663 0.325386 4.50575 0.196344 4.19635C0.0673015 3.88696 0.000579132 3.55515 0 3.21992C0 2.54292 0.27 1.89492 0.753 1.41692C1.23689 0.93808 1.89024 0.669623 2.571 0.669922C3.253 0.669922 3.907 0.938922 4.39 1.41692C4.872 1.89492 5.143 2.54292 5.143 3.21992Z" fill="#E5E2F6"/>
</svg>
