<svg width="32" height="16" viewBox="0 0 32 16" fill="none" xmlns="http://www.w3.org/2000/svg">
<path fill-rule="evenodd" clip-rule="evenodd" d="M4.24199e-06 7.25805L3.2655 7.25805L3.26549 9.9183L0 9.9183L4.24199e-06 7.25805ZM6.19318 7.25805L10.0217 7.25805L10.0217 9.9183L6.19317 9.9183L6.19318 7.25805ZM12.9494 7.25805L16.7779 7.25805L16.7779 9.9183L12.9494 9.9183L12.9494 7.25805ZM19.7056 7.25805L23.5341 7.25805L23.5341 9.9183L19.7055 9.9183L19.7056 7.25805ZM26.4617 7.25805L29.7272 7.25805L29.7272 9.9183L26.4617 9.9183L26.4617 7.25805Z" fill="black"/>
<path fill-rule="evenodd" clip-rule="evenodd" d="M22.6406 12.6637L26.2169 8.20452L22.6613 3.30444L26.1798 0.830455L31.6234 8.33238L26.0344 15.3011L22.6406 12.6637Z" fill="black"/>
</svg>
